<svg width="24" height="24" viewBox="0 0 24 24" fill="none" xmlns="http://www.w3.org/2000/svg">
<g clip-path="url(#clip0_11:237)">
<path d="M7.12496 3.75V1.5C7.12496 1.20163 7.24348 0.915483 7.45446 0.704505C7.66544 0.493526 7.95159 0.375 8.24996 0.375C8.54833 0.375 8.83448 0.493526 9.04545 0.704505C9.25643 0.915483 9.37496 1.20163 9.37496 1.5V3.75C9.37496 4.04837 9.25643 4.33452 9.04545 4.5455C8.83448 4.75647 8.54833 4.875 8.24996 4.875C7.95159 4.875 7.66544 4.75647 7.45446 4.5455C7.24348 4.33452 7.12496 4.04837 7.12496 3.75ZM12 4.875C12.2983 4.875 12.5845 4.75647 12.7955 4.5455C13.0064 4.33452 13.125 4.04837 13.125 3.75V1.5C13.125 1.20163 13.0064 0.915483 12.7955 0.704505C12.5845 0.493526 12.2983 0.375 12 0.375C11.7016 0.375 11.4154 0.493526 11.2045 0.704505C10.9935 0.915483 10.875 1.20163 10.875 1.5V3.75C10.875 4.04837 10.9935 4.33452 11.2045 4.5455C11.4154 4.75647 11.7016 4.875 12 4.875ZM15.75 4.875C16.0483 4.875 16.3345 4.75647 16.5455 4.5455C16.7564 4.33452 16.875 4.04837 16.875 3.75V1.5C16.875 1.20163 16.7564 0.915483 16.5455 0.704505C16.3345 0.493526 16.0483 0.375 15.75 0.375C15.4516 0.375 15.1654 0.493526 14.9545 0.704505C14.7435 0.915483 14.625 1.20163 14.625 1.5V3.75C14.625 4.04837 14.7435 4.33452 14.9545 4.5455C15.1654 4.75647 15.4516 4.875 15.75 4.875ZM23.55 9.9L21 11.8125V17.25C20.999 18.1448 20.6431 19.0027 20.0103 19.6354C19.3776 20.2681 18.5198 20.624 17.625 20.625H6.37496C5.48016 20.624 4.62229 20.2681 3.98957 19.6354C3.35685 19.0027 3.00095 18.1448 2.99996 17.25V11.8125L0.449959 9.9C0.211264 9.72098 0.0534613 9.45447 0.0112656 9.1591C-0.03093 8.86373 0.0459377 8.56369 0.224959 8.325C0.40398 8.08631 0.67049 7.9285 0.96586 7.88631C1.26123 7.84411 1.56126 7.92098 1.79996 8.1L2.99996 9V8.25C3.0005 7.75289 3.19822 7.27629 3.54974 6.92478C3.90125 6.57327 4.37785 6.37555 4.87496 6.375H19.125C19.6221 6.37555 20.0987 6.57327 20.4502 6.92478C20.8017 7.27629 20.9994 7.75289 21 8.25V9L22.2 8.1C22.4387 7.92098 22.7387 7.84411 23.0341 7.88631C23.3294 7.9285 23.5959 8.08631 23.775 8.325C23.954 8.56369 24.0308 8.86373 23.9887 9.1591C23.9465 9.45447 23.7887 9.72098 23.55 9.9ZM18.75 8.625H5.24996V17.25C5.25031 17.5483 5.36894 17.8342 5.57985 18.0451C5.79075 18.256 6.0767 18.3747 6.37496 18.375H17.625C17.9232 18.3747 18.2092 18.256 18.4201 18.0451C18.631 17.8342 18.7496 17.5483 18.75 17.25V8.625Z" fill="#C61214"/>
</g>
<defs>
<clipPath id="clip0_11:237">
<rect width="24" height="24" fill="white"/>
</clipPath>
</defs>
</svg>
