<svg width="24" height="24" viewBox="0 0 24 24" fill="none" xmlns="http://www.w3.org/2000/svg">
<path d="M12 7.49997C12 7.50663 11.9995 7.51319 11.9995 7.51985L11.9992 7.53363C11.9901 8.49119 11.6486 9.41587 11.0332 10.1495C10.4177 10.8831 9.56642 11.3801 8.625 11.5554V21C8.625 21.1989 8.54598 21.3897 8.40533 21.5303C8.26468 21.671 8.07391 21.75 7.875 21.75C7.67609 21.75 7.48532 21.671 7.34467 21.5303C7.20402 21.3897 7.125 21.1989 7.125 21V11.5554C6.18358 11.3801 5.33234 10.8831 4.71687 10.1494C4.1014 9.41579 3.75996 8.4911 3.75094 7.53353C3.75066 7.52903 3.75066 7.52444 3.75047 7.51985C3.75047 7.51328 3.75 7.50672 3.75 7.49997C3.75 7.49285 3.75094 7.48591 3.75103 7.47888C3.7515 7.46538 3.75197 7.45178 3.75309 7.43819C3.75422 7.4245 3.75591 7.411 3.75778 7.3975C3.75872 7.39056 3.75909 7.38363 3.76022 7.37669L4.51022 2.87669C4.52582 2.77901 4.56059 2.68539 4.61253 2.6012C4.66447 2.51702 4.73254 2.44394 4.81284 2.38617C4.89313 2.32841 4.98406 2.2871 5.08039 2.26462C5.17672 2.24214 5.27654 2.23894 5.37411 2.2552C5.47168 2.27146 5.56507 2.30686 5.64891 2.35936C5.73274 2.41186 5.80536 2.48043 5.86258 2.56111C5.91981 2.64179 5.96051 2.733 5.98234 2.82947C6.00417 2.92595 6.0067 3.02579 5.98978 3.12325L5.38538 6.74997H7.125V2.99997C7.125 2.80106 7.20402 2.61029 7.34467 2.46964C7.48532 2.32899 7.67609 2.24997 7.875 2.24997C8.07391 2.24997 8.26468 2.32899 8.40533 2.46964C8.54598 2.61029 8.625 2.80106 8.625 2.99997V6.74997H10.3646L9.76022 3.12325C9.7433 3.02579 9.74583 2.92595 9.76766 2.82947C9.78949 2.733 9.83019 2.64179 9.88742 2.56111C9.94464 2.48043 10.0173 2.41186 10.1011 2.35936C10.1849 2.30686 10.2783 2.27146 10.3759 2.2552C10.4735 2.23894 10.5733 2.24214 10.6696 2.26462C10.7659 2.2871 10.8569 2.32841 10.9372 2.38617C11.0175 2.44394 11.0855 2.51702 11.1375 2.6012C11.1894 2.68539 11.2242 2.77901 11.2398 2.87669L11.9898 7.37669C11.9909 7.38363 11.9912 7.39056 11.9922 7.3975C11.9941 7.411 11.9958 7.4245 11.9969 7.43819C11.998 7.45178 11.9985 7.46538 11.999 7.47888C11.9992 7.486 12 7.49294 12 7.49997ZM19.8743 2.98666C19.8739 2.96064 19.8721 2.93467 19.8689 2.90884C19.8625 2.85692 19.8507 2.80581 19.8337 2.75631C19.8323 2.75209 19.8314 2.74788 19.8299 2.74366C19.8282 2.73916 19.8261 2.73494 19.8243 2.73044C19.8187 2.71575 19.8126 2.70131 19.806 2.68713C19.8018 2.67788 19.7974 2.66875 19.7929 2.65975C19.7866 2.64769 19.7801 2.63581 19.7733 2.62413C19.7673 2.61366 19.761 2.60335 19.7545 2.59319C19.7483 2.58371 19.7419 2.57436 19.7353 2.56516C19.7275 2.55401 19.7193 2.5431 19.7108 2.53244C19.7047 2.52466 19.6981 2.51706 19.6916 2.50956C19.6823 2.49873 19.6727 2.48816 19.6627 2.47788C19.6558 2.47066 19.6486 2.46381 19.6414 2.45697C19.6315 2.44743 19.6213 2.43818 19.6108 2.42922C19.6024 2.422 19.5937 2.41516 19.5849 2.40841C19.5752 2.40074 19.5652 2.3933 19.5551 2.38609C19.5447 2.37888 19.5341 2.37194 19.5233 2.36528C19.5142 2.35956 19.5051 2.35375 19.4957 2.34841C19.4834 2.34152 19.4709 2.33499 19.4583 2.32881C19.4497 2.3245 19.441 2.32028 19.4322 2.31625C19.4189 2.31033 19.4054 2.3048 19.3917 2.29966C19.3827 2.29628 19.3736 2.29281 19.3644 2.28972C19.3513 2.28531 19.338 2.28128 19.3246 2.27763C19.3139 2.27465 19.3032 2.2719 19.2924 2.26938C19.2574 2.2615 19.2218 2.25605 19.1859 2.25306C19.1706 2.25181 19.1552 2.25103 19.1396 2.25072C19.1348 2.25063 19.13 2.24997 19.125 2.24997C19.1205 2.24997 19.116 2.25053 19.1115 2.25063C19.0725 2.25131 19.0335 2.25508 18.9951 2.26188C18.9564 2.26853 18.9184 2.27834 18.8813 2.29122C18.8771 2.29272 18.8729 2.29356 18.8687 2.29506C18.8594 2.29853 18.8503 2.30256 18.8411 2.30594C18.8377 2.30734 18.8341 2.30856 18.8306 2.31006C16.8984 3.03625 15.3511 5.40663 14.2315 9.358C13.7237 11.1814 13.3552 13.0407 13.1293 14.92C13.1181 15.0246 13.129 15.1305 13.1614 15.2306C13.1937 15.3307 13.2468 15.4229 13.3171 15.5012C13.3875 15.5795 13.4735 15.6421 13.5696 15.685C13.6657 15.7278 13.7698 15.75 13.875 15.75H18.375V21C18.375 21.1989 18.454 21.3897 18.5947 21.5303C18.7353 21.671 18.9261 21.75 19.125 21.75C19.3239 21.75 19.5147 21.671 19.6553 21.5303C19.796 21.3897 19.875 21.1989 19.875 21V2.99997C19.875 2.99547 19.8744 2.99116 19.8743 2.98666Z" fill="#C61214"/>
</svg>
